# AST/ASF file generated using VICON BodyLanguage
# -----------------------------------------------
:version 1.10
:name VICON
:units
  mass 1.0
  length 0.45
  angle deg
:documentation
   .ast/.asf automatically generated from VICON data using
   VICON BodyBuilder and BodyLanguage model FoxedUp or BRILLIANT.MOD
:root
   order TX TY TZ RX RY RZ
   axis XYZ
   position 0 0 0  
   orientation 0 0 0 
:bonedata
  begin
     id 1 
     name lhipjoint
     direction 0.611804 -0.747784 0.257906 
     length 2.29243 
     axis 0 0 0  XYZ
  end
  begin
     id 2 
     name lfemur
     direction 0.34202 -0.939693 0  
     length 7.31159  
     axis 0 0 20  XYZ
    dof rx ry rz
    limits (-160.0 20.0)
           (-70.0 70.0)
           (-60.0 70.0)
  end
  begin
     id 3 
     name ltibia
     direction 0.34202 -0.939693 0   
     length 7.33391   
     axis 0 0 20   XYZ
    dof rx
    limits (-10.0 170.0)
  end
  begin
     id 4 
     name lfoot
     direction 0.122263 -0.335914 0.933924   
     length 1.76083   
     axis -90 7.62852e-016 20   XYZ
    dof rx rz
    limits (-45.0 90.0)
           (-70.0 20.0)
  end
  begin
     id 5 
     name ltoes
     direction 1.53533e-011 -4.2177e-011 1   
     length 0.879206   
     axis -90 7.62852e-016 20   XYZ
    dof rx
    limits (-90.0 20.0)
  end
  begin
     id 6 
     name rhipjoint
     direction -0.646469 -0.721248 0.248754   
     length 2.37677  
     axis 0 0 0  XYZ 
  end
  begin
     id 7 
     name rfemur
     direction -0.34202 -0.939693 0   
     length 7.18623   
     axis 0 0 -20   XYZ
    dof rx ry rz
    limits (-160.0 20.0)
           (-70.0 70.0)
           (-70.0 60.0)
  end
  begin
     id 8 
     name rtibia
     direction -0.34202 -0.939693 0   
     length 7.36567   
     axis 0 0 -20   XYZ
    dof rx
    limits (-10.0 170.0)
 end
 begin
     id 9 
     name rfoot
     direction -0.126681 -0.348054 0.928876   
     length 1.71902  
     axis -90 -7.62852e-016 -20   XYZ
    dof rx rz
    limits (-45.0 90.0)
           (-20.0 70.0)
  end
  begin
     id 10 
     name rtoes
     direction -1.53551e-011 -4.21898e-011 1   
     length 0.857792   
     axis -90 -7.62852e-016 -20   XYZ
    dof rx
    limits (-90.0 20.0)
  end
  begin
     id 11 
     name lowerback
     direction 0.0106509 0.999778 0.0181844   
     length 2.07668   
     axis 0 0 0   XYZ
    dof rx ry rz
    limits (-20.0 45.0)
           (-30.0 30.0)
           (-30.0 30.0)
  end
  begin
     id 12 
     name upperback
     direction -0.00456018 0.999989 -0.000590935   
     length 2.08011   
     axis 0 0 0   XYZ
    dof rx ry rz
    limits (-20.0 45.0)
           (-30.0 30.0)
           (-30.0 30.0)
  end
  begin
     id 13 
     name thorax
     direction -0.00910382 0.999916 -0.00923765   
     length 2.07397   
     axis 0 0 0   XYZ
    dof rx ry rz
    limits (-20.0 45.0)
           (-30.0 30.0)
           (-30.0 30.0)
  end
  begin
     id 14 
     name lowerneck
     direction 0.00171967 0.99778 0.0665733   
     length 1.67556   
     axis 0 0 0   XYZ
    dof rx ry rz
    limits (-20.0 45.0)
           (-30.0 30.0)
           (-30.0 30.0)
  end
  begin
     id 15 
     name upperneck
     direction -0.0143166 0.991302 -0.130828   
     length 1.68462   
     axis 0 0 0   XYZ
    dof rx ry rz
    limits (-20.0 45.0)
           (-30.0 30.0)
           (-30.0 30.0)
  end
  begin
     id 16
     name head
     direction -0.00606378 0.998665 -0.0512995  
     length 1.69269  
     axis 0 0 0   XYZ
    dof rx ry rz
    limits (-20.0 45.0)
           (-30.0 30.0)
           (-30.0 30.0)
  end
  begin
     id 17 
     name lclavicle
     direction 0.9638 0.179341 0.197297  
     length 4.12888  
     axis 0 0 0   XYZ
    dof ry rz
    limits (-20.0 10.0)
           (0.0 20.0)
  end
  begin
     id 18 
     name lhumerus
     direction 1 -4.48972e-011 -2.47351e-027   
     length 5.01834   
     axis -180 -30 -90   XYZ
    dof rx ry rz
    limits (-60.0 90.0)
           (-90.0 90.0)
           (-90.0 90.0)
  end
  begin
     id 19
     name lradius
     direction 1 -4.48965e-011 1.51591e-026   
     length 3.4869   
     axis -180 -30 -90   XYZ
    dof rx
    limits (-10.0 170.0)
  end
  begin
     id 20
     name lwrist
     direction 1 -4.48957e-011 2.70032e-026   
     length 1.74345   
     axis -1.81515e-014 90 90   XYZ
    dof ry
    limits (-180.0 0.0)
 end
  begin
     id 21 
     name lhand
     direction 1 -4.48951e-011 5.40064e-026   
     length 0.76799   
     axis -3.44607e-014 90 90   XYZ
    dof rx rz
    limits (-90.0 90.0)
           (-45.0 45.0)
  end
  begin
     id 22 
     name lfingers
     direction 1 -4.48971e-011 1.08013e-025   
     length 0.619174   
     axis -6.89214e-014 90 90   XYZ
    dof rx
    limits (0.0 90.0)
  end
  begin
     id 23
     name lthumb
     direction 0.707107 -6.34931e-011 0.707107   
     length 0.889013   
     axis -90 45 2.85299e-015   XYZ
    dof rx rz
    limits (-45.0 45.0)
           (-45.0 45.0)
  end
  begin
     id 24 
     name rclavicle
     direction -0.961409 0.252588 0.109054   
     length 4.04305  
     axis 0 0 0   XYZ 
    dof ry rz
    limits (-10.0 20.0)
           (-20.0 0.0)
  end
  begin
     id 25 
     name rhumerus
     direction -1 -4.4897e-011 1.33872e-017  
     length 4.70164   
     axis -180 30 90   XYZ
    dof rx ry rz
    limits (-90.0 60.0)
           (-90.0 90.0)
           (-90.0 90.0)
  end
  begin
     id 26 
     name rradius
     direction -1 -4.48954e-011 1.83844e-026   
     length 3.49911   
     axis -180 30 90   XYZ
    dof rx
    limits (-10.0 170.0)
  end
  begin
     id 27 
     name rwrist
     direction -1 -4.49008e-011 2.70032e-026   
     length 1.74955   
     axis -1.81515e-014 -90 -90   XYZ
    dof ry
    limits (-180.0 0.0)
  end
  begin
     id 28
     name rhand
     direction -1 -4.48916e-011 5.40064e-026   
     length 0.739335   
     axis -3.44607e-014 -90 -90   XYZ
    dof rx rz
    limits (-90.0 90.0)
           (-45.0 45.0)
  end
  begin
     id 29
     name rfingers
     direction -1 -4.48987e-011 1.08013e-025   
     length 0.596071   
     axis -6.89214e-014 -90 -90   XYZ
    dof rx
    limits (0.0 90.0)
  end
  begin
     id 30
     name rthumb
     direction -0.707107 -6.34935e-011 0.707107   
     length 0.855843   
     axis -90 -45 -2.85299e-015   XYZ
    dof rx rz
    limits (-45.0 45.0)
           (-45.0 45.0)
  end
:hierarchy
  begin
    root lhipjoint rhipjoint lowerback
    lhipjoint lfemur
    lfemur ltibia
    ltibia lfoot
    lfoot ltoes
    rhipjoint rfemur
    rfemur rtibia
    rtibia rfoot
    rfoot rtoes
    lowerback upperback
    upperback thorax
    thorax lowerneck lclavicle rclavicle
    lowerneck upperneck
    upperneck head
    lclavicle lhumerus
    lhumerus lradius
    lradius lwrist
    lwrist lhand lthumb
    lhand lfingers
    rclavicle rhumerus
    rhumerus rradius
    rradius rwrist
    rwrist rhand rthumb
    rhand rfingers
  end

#!OML:ASF I:\salsa\salsa 7_09\Patient 1\Session 1\dancermale.ASF
:FULLY-SPECIFIED
:DEGREES
944
root 5.06401 17.0708 4.43279 200.633 -29.7688 534.357
lowerback -1.47573 4.95852 0.799296
upperback -0.741553 6.59718 -2.07453
thorax 0.396853 3.29333 -2.43387
lowerneck -7.66944 9.10283 6.01769
upperneck 24.9626 13.8065 -12.641
head 10.5963 5.20929 -3.92808
rclavicle 9.66093e-014 -4.77083e-015
rhumerus -47.6124 19.2146 -111.985
rradius 51.7539
rwrist 10.9377
rhand -57.2763 21.1938
rfingers 7.12502
rthumb -29.5552 -6.47309
lclavicle 9.66093e-014 -4.77083e-015
lhumerus -5.95814 -5.38238 83.086
lradius 65.4552
lwrist 62.8297
lhand -10.6627 53.5023
lfingers 7.12502
lthumb 15.3454 82.9129
rfemur -12.4072 4.11634 17.8443
rtibia 33.1433
rfoot -21.0676 -14.7083
rtoes -5.9653
lfemur -41.0886 -5.8423 -17.4894
ltibia 32.5534
lfoot -11.3533 2.55351
ltoes -10.421
945
root 5.18551 17.0508 4.42716 200.463 -31.3877 534.739
lowerback -1.31157 5.57769 1.18998
upperback -0.643595 7.42609 -1.82926
thorax 0.463103 3.71241 -2.38461
lowerneck -7.65278 8.99754 6.19667
upperneck 25.1637 13.7136 -12.7775
head 10.6821 5.17238 -4.02422
rclavicle -3.1408e-014 -2.62396e-014
rhumerus -48.5039 19.0623 -111.952
rradius 53.2574
rwrist 10.213
rhand -55.5122 21.3325
rfingers 7.12502
rthumb -27.8699 -6.62
lclavicle -3.1408e-014 -2.62396e-014
lhumerus -7.3367 -6.9618 82.5737
lradius 67.5562
lwrist 62.1027
lhand -11.2393 53.5577
lfingers 7.12502
lthumb 14.79 83.01
rfemur -11.8477 2.7976 18.8941
rtibia 32.0874
rfoot -21.3512 -14.2999
rtoes -7.45806
lfemur -41.879 -3.91032 -18.4036
ltibia 34.0578
lfoot -12.2205 4.16123
ltoes -5.46655
946
root 5.28978 17.0205 4.40931 200.139 -33.2681 535.134
lowerback -1.45417 6.08577 1.84078
upperback -0.35931 8.10049 -1.62077
thorax 0.928032 4.06006 -2.46641
lowerneck -7.57924 8.89808 6.20842
upperneck 25.072 13.5836 -12.6667
head 10.6086 5.15479 -4.00093
rclavicle -5.26779e-014 1.27222e-014
rhumerus -49.2288 19.3006 -112.069
rradius 54.9559
rwrist 9.00596
rhand -55.7078 21.4253
rfingers 7.12502
rthumb -28.0569 -6.49678
lclavicle -5.26779e-014 1.27222e-014
lhumerus -8.55697 -8.52481 81.8398
lradius 69.765
lwrist 61.7132
lhand -11.7265 53.9659
lfingers 7.12502
lthumb 14.3206 83.4521
rfemur -11.2563 1.16037 20.0133
rtibia 31.3063
rfoot -21.5887 -13.9487
rtoes -8.72305
lfemur -42.6411 -1.35001 -20.1697
ltibia 36.5626
lfoot -13.5301 6.96096
ltoes -7.99859
947
root 5.38404 16.9791 4.38338 199.808 -35.4175 535.535
lowerback -1.71118 6.40656 2.35953
upperback -0.162705 8.51276 -1.23042
thorax 1.31248 4.27328 -2.28802
lowerneck -7.37417 8.83817 5.98464
upperneck 25.0166 13.5206 -12.4881
head 10.5078 5.1495 -3.91214
rclavicle 7.55382e-015 9.54166e-015
rhumerus -50.229 20.0152 -112.243
rradius 56.5054
rwrist 7.63241
rhand -59.5002 20.8201
rfingers 7.12502
rthumb -31.6759 -6.45036
lclavicle 7.55382e-015 9.54166e-015
lhumerus -9.96693 -9.84907 81.1663
lradius 71.8785
lwrist 61.6318
lhand -12.2152 54.3169
lfingers 7.12502
lthumb 13.8496 83.8358
rfemur -10.8017 -0.626322 21.251
rtibia 30.8331
rfoot -21.9013 -13.8376
rtoes -8.98095
lfemur -43.3883 0.883537 -21.9796
ltibia 39.4282
lfoot -15.1034 9.69606
ltoes -6.46283
948
root 5.46774 16.931 4.34634 199.343 -37.5181 536.025
lowerback -1.96158 6.77831 2.82423
upperback -0.0192495 8.98435 -0.844601
thorax 1.63619 4.51354 -2.08103
lowerneck -7.35196 8.7025 5.85582
upperneck 25.2274 13.3351 -12.2367
head 10.5296 5.08144 -3.82896
rclavicle -4.57205e-014 -5.40694e-014
rhumerus -51.1329 20.7123 -112.46
rradius 57.9272
rwrist 6.13059
rhand -58.5285 23.989
rfingers 7.12502
rthumb -30.7499 -3.45983
lclavicle -4.57205e-014 -5.40694e-014
lhumerus -11.3668 -11.4154 80.4753
lradius 73.8143
lwrist 61.3103
lhand -12.5335 54.761
lfingers 7.12502
lthumb 13.5428 84.3006
rfemur -10.3765 -1.78368 22.7216
rtibia 30.631
rfoot -22.343 -14.2329
rtoes -7.72657
lfemur -43.9684 3.41749 -23.9501
ltibia 42.5064
lfoot -16.5515 11.9897
ltoes -5.00223
949
root 5.53189 16.8791 4.29337 198.852 -39.4671 536.511
lowerback -2.3048 7.20389 3.17882
upperback 0.0699268 9.52098 -0.512849
thorax 1.95166 4.78396 -1.85151
lowerneck -7.57233 8.55293 5.78792
upperneck 25.7444 13.1015 -11.818
head 10.7 4.9896 -3.69881
rclavicle -1.90833e-014 1.90833e-014
rhumerus -51.9582 21.3134 -112.753
rradius 59.3805
rwrist 4.70456
rhand -57.7798 26.772
rfingers 7.12502
rthumb -30.0358 -0.808804
lclavicle -1.90833e-014 1.90833e-014
lhumerus -13.0222 -13.0919 79.7871
lradius 75.9202
lwrist 60.284
lhand -12.6079 55.6181
lfingers 7.12502
lthumb 13.4711 85.1624
rfemur -9.95917 -2.70872 24.1778
rtibia 30.4988
rfoot -22.7298 -14.9366
rtoes -6.61916
lfemur -44.3649 6.14648 -26.0609
ltibia 45.3805
lfoot -17.4604 13.5089
ltoes -4.65866
950
root 5.58197 16.8305 4.22723 198.44 -41.4414 536.804
lowerback -2.51299 7.53062 3.32265
upperback -0.0288376 9.93468 -0.222471
thorax 1.96234 4.98517 -1.59003
lowerneck -7.44666 8.44579 5.68848
upperneck 26.1246 12.8984 -11.3483
head 10.7499 4.93261 -3.55093
rclavicle 9.93923e-015 -4.77083e-015
rhumerus -53.0865 21.975 -113.454
rradius 61.4739
rwrist 2.74949
rhand -57.1796 24.9789
rfingers 7.12502
rthumb -29.463 -2.70431
lclavicle 9.93923e-015 -4.77083e-015
lhumerus -15.2585 -14.9286 79.1082
lradius 78.2502
lwrist 58.8696
lhand -12.5659 56.3049
lfingers 7.12502
lthumb 13.5116 85.8466
rfemur -9.47991 -3.71811 25.4262
rtibia 30.2913
rfoot -23.0149 -15.9342
rtoes -6.87799
lfemur -44.4663 8.62136 -28.1835
ltibia 47.7469
lfoot -18.1956 13.6655
ltoes -3.86998
